<svg width="18" height="20" viewBox="0 0 18 20" fill="none" xmlns="http://www.w3.org/2000/svg">
<path fill-rule="evenodd" clip-rule="evenodd" d="M7.12296 0.121699C7.03301 0.221242 6.95933 2.82969 6.95933 5.91861L6.95933 11.5344L3.93047 11.5344C1.34371 11.5344 0.880236 11.5957 0.755884 11.9542C0.573423 12.4802 2.40733 16.6374 2.91753 16.854C3.12067 16.9401 3.77335 16.864 4.36768 16.6845C5.73347 16.2721 6.78895 16.2714 8.1473 16.6821C9.07379 16.9625 9.39757 16.9443 10.5353 16.5481C11.7703 16.1183 11.9244 16.1163 13.0347 16.5132C13.6858 16.7457 14.3057 16.936 14.4126 16.936C14.7582 16.936 17.4472 12.5309 17.3708 12.09C17.3052 11.7127 16.7757 11.6548 12.8253 11.5931L8.35394 11.5234L8.35394 10.7641L8.35394 10.0048L11.7793 9.93378C15.7505 9.85122 15.7342 9.86434 14.7696 7.5324C13.9698 5.59941 12.0838 3.61189 10.0056 2.51228L8.34138 1.63157L9.68416 1.50296C10.9305 1.38361 11.0269 1.32805 11.0269 0.731305C11.0269 0.104722 10.9788 0.0864598 9.15676 0.0144389C8.12801 -0.0262015 7.21291 0.0218983 7.12296 0.121699ZM11.0841 5.08137C12.015 5.83219 13.4675 7.75078 13.4675 8.2292C13.4675 8.34958 12.3169 8.44784 10.9107 8.44784L8.35394 8.44784L8.35394 5.87052L8.35394 3.29294L9.22557 3.78911C9.70508 4.06202 10.5414 4.64359 11.0841 5.08137ZM0.0804294 18.0642C-0.16967 18.7857 0.135981 19.1432 1.38369 19.5892C2.82595 20.1047 4.19638 20.1273 5.3904 19.6558C6.11838 19.3683 6.40567 19.3683 7.13366 19.6558C7.61317 19.8452 8.47596 20 9.05124 20C9.62651 20 10.4893 19.8452 10.9688 19.6558C11.6968 19.3683 11.9841 19.3683 12.7121 19.6558C13.911 20.1294 15.4553 20.0877 16.8378 19.545C17.8012 19.1666 18 18.9814 18 18.4624C18 17.7437 17.5953 17.7048 15.7337 18.2455C14.8479 18.5027 14.4114 18.5014 13.5256 18.2391C12.9185 18.0593 12.1601 17.9122 11.8405 17.9122C11.5209 17.9122 10.7624 18.0593 10.1553 18.2391C9.26229 18.5035 8.84019 18.5035 7.94718 18.2391C7.33982 18.0593 6.58162 17.9122 6.26203 17.9122C5.94243 17.9122 5.18423 18.0593 4.57688 18.2391C3.69827 18.4991 3.24735 18.5017 2.36875 18.2517C1.7614 18.0788 1.03062 17.8726 0.744495 17.7931C0.393519 17.6958 0.177587 17.7838 0.0804294 18.0642Z" fill="#222529"/>
</svg>
