<svg width="18" height="20" viewBox="0 0 18 20" fill="none" xmlns="http://www.w3.org/2000/svg">
<path fill-rule="evenodd" clip-rule="evenodd" d="M4.93654 0.444742C5.00609 0.723436 5.38591 2.39226 5.78098 4.15324C6.17606 5.91422 6.55149 7.57441 6.61526 7.84225C6.71992 8.28187 6.51684 8.32948 4.53754 8.32948L2.34384 8.32948L1.50171 6.65898C0.126578 3.93106 -3.04072e-05 4.21282 -3.02556e-05 9.99997C-3.01039e-05 15.7871 0.126578 16.0689 1.50171 13.341L2.34384 11.6705L4.53754 11.6705C6.51684 11.6705 6.71992 11.7181 6.61526 12.1577C6.55149 12.4255 6.17606 14.0857 5.78098 15.8467C5.38591 17.6077 5.00609 19.2765 4.93654 19.5552C4.8298 19.984 4.92684 20.0483 5.56774 19.9728C6.25253 19.8924 6.55958 19.4909 8.76529 15.7919L11.2053 11.7L14.151 11.6852C16.7793 11.6721 17.1466 11.6103 17.5588 11.1136C18.147 10.4048 18.147 9.59515 17.5588 8.88631C17.1466 8.38961 16.7793 8.3278 14.151 8.31472L11.2053 8.29996L8.76529 4.20809C6.55958 0.509056 6.25253 0.10758 5.56774 0.027118C4.92684 -0.0483326 4.8298 0.0159814 4.93654 0.444742Z" fill="#222529"/>
</svg>
